# xmcd
#
# Track frame offsets: 
#        150
#        51302
#        120902
#
# Disc length: 2837 seconds
#
# Revision: 0
# Processed by: cddbd v1.5.2PL0 Copyright (c) Steve Scherf et al.
# Submitted via: ExactAudioCopy v1.0b3
#
DISCID=1e0b1303
DTITLE=Throne Of Katarsis - The Three Transcendental Keys
DYEAR=2013
DGENRE=Black Metal
TTITLE0=The First Transcendental Key: Of Rituals (And Astral Spells)
TTITLE1=The Second Transcendental Key: Beyond The Specters
TTITLE2=The Third Transcendental Key: In Timeless Aspects
EXTD=
EXTT0=
EXTT1=
EXTT2=
PLAYORDER=
